# xmcd
#
# Track frame offsets: 
#        150
#        16402
#        36197
#        52639
#        72685
#        91125
#        110357
#        132300
#        147625
#        163245
#
# Disc length: 2434 seconds
#
# Revision: 1
# Processed by: cddbd v1.5.2PL0 Copyright (c) Steve Scherf et al.
# Submitted via: ExactAudioCopyFreeDBPlugin 1.0
#
DISCID=8b09800a
DTITLE=蟑螂 - IPIS 蟑螂
DYEAR=1997
DGENRE=Blues
TTITLE0=吸血鬼
TTITLE1=说你爱我
TTITLE2=Love is a wonderful thing
TTITLE3=两个字
TTITLE4=爱是天堂
TTITLE5=麻烦你让一让
TTITLE6=One
TTITLE7=It's OK
TTITLE8=需要爱的是我
TTITLE9=天空
EXTD=YEAR: 1997
EXTT0=
EXTT1=
EXTT2=
EXTT3=
EXTT4=
EXTT5=
EXTT6=
EXTT7=
EXTT8=
EXTT9=
PLAYORDER=
